<?xml version="1.0" encoding="UTF-8"?>
<svg viewBox="0 0 162.30048 117.09443" xmlns="http://www.w3.org/2000/svg">
 <g transform="matrix(.31893 0 0 .31893 259.3 837.5)">
  <path d="m-508.09-2356.9 157.52-90.942v53.495l-157.52 90.942z" fill="#525252" stroke="#95700c" stroke-width="1.5098"/>
  <path d="m-605.38-2509.3 264.07 125.71-148.25 85.592-268.7-133.74z" fill="#464646" stroke="#95700c" stroke-width="3.0195"/>
  <path d="m-610.02-2565.5 268.7 133.74v48.146l-268.7-133.74z" fill="#606060" stroke="#95700c" stroke-width="3.0195"/>
  <path d="m-758.27-2479.9 268.7 133.74v48.146l-268.7-133.74z" fill="#808080" stroke="#9e7506" stroke-width="3.0195"/>
  <path d="m-776.8-2490.6 268.7 133.74v53.495l-268.7-133.74z" fill="#b28d00" stroke="#95700c" stroke-width="3.0195"/>
  <g transform="matrix(.97834 -.207 .207 .97834 -735.1 -2141.6)">
   <path d="m339.16-169.33-6.912 1.8328-117.39-118.08 6.8499-1.8163z" fill="#dec152" stroke="#6c4a00" stroke-width=".50453"/>
   <path d="m330.38-160.6 1.8687-6.9024-117.39-118.08-1.852 6.8404z" fill="#a18313" stroke="#6c4a00" stroke-width=".50453"/>
   <path d="m325.58-156.84c-8.6251-8.8899-10.824-19.575-4.9122-23.867s17.697-0.56347 26.322 8.3264c4.3126 4.4449 7.0186 9.3388 7.9076 13.658s-0.0393 8.0632-2.9955 10.209c-5.9122 4.2914-17.697 0.56349-26.322-8.3264z" fill="#ba2216"/>
   <path d="m325.58-156.84c-8.6251-8.8899-10.824-19.575-4.9122-23.867s-8.5019 6.5581 2.3221 12.58c6.5557 3.6474 8.6994 12.886 12.299 15.433 13.673 9.6771 19.57 2.034 16.614 4.1797-5.9122 4.2914-17.697 0.56349-26.322-8.3264z" fill="#880f06"/>
  </g>
  <g transform="matrix(.99914 -.04144 .04144 .99914 -778.57 -2180.9)">
   <path d="m339.16-169.33-6.912 1.8328-117.39-118.08 6.8499-1.8163z" fill="#dec152" stroke="#6c4a00" stroke-width=".50453"/>
   <path d="m330.38-160.6 1.8687-6.9024-117.39-118.08-1.852 6.8404z" fill="#a18313" stroke="#6c4a00" stroke-width=".50453"/>
   <path d="m325.58-156.84c-8.6251-8.8899-10.824-19.575-4.9122-23.867s17.697-0.56347 26.322 8.3264c4.3126 4.4449 7.0186 9.3388 7.9076 13.658s-0.0393 8.0632-2.9955 10.209c-5.9122 4.2914-17.697 0.56349-26.322-8.3264z" fill="#ba2216"/>
   <path d="m325.58-156.84c-8.6251-8.8899-10.824-19.575-4.9122-23.867s-8.5019 6.5581 2.3221 12.58c6.5557 3.6474 8.6994 12.886 12.299 15.433 13.673 9.6771 19.57 2.034 16.614 4.1797-5.9122 4.2914-17.697 0.56349-26.322-8.3264z" fill="#880f06"/>
  </g>
  <g transform="matrix(.93436 -.35634 .35634 .93436 -657.98 -2122.8)">
   <path d="m339.16-169.33-6.912 1.8328-117.39-118.08 6.8499-1.8163z" fill="#dec152" stroke="#6c4a00" stroke-width=".50453"/>
   <path d="m330.38-160.6 1.8687-6.9024-117.39-118.08-1.852 6.8404z" fill="#a18313" stroke="#6c4a00" stroke-width=".50453"/>
   <path d="m325.58-156.84c-8.6251-8.8899-10.824-19.575-4.9122-23.867s17.697-0.56347 26.322 8.3264c4.3126 4.4449 7.0186 9.3388 7.9076 13.658s-0.0393 8.0632-2.9955 10.209c-5.9122 4.2914-17.697 0.56349-26.322-8.3264z" fill="#ba2216"/>
   <path d="m325.58-156.84c-8.6251-8.8899-10.824-19.575-4.9122-23.867s-8.5019 6.5581 2.3221 12.58c6.5557 3.6474 8.6994 12.886 12.299 15.433 13.673 9.6771 19.57 2.034 16.614 4.1797-5.9122 4.2914-17.697 0.56349-26.322-8.3264z" fill="#880f06"/>
  </g>
  <g transform="matrix(.99858 .05326 -.05326 .99858 -813.03 -2194.6)">
   <path d="m339.16-169.33-6.912 1.8328-117.39-118.08 6.8499-1.8163z" fill="#dec152" stroke="#6c4a00" stroke-width=".50453"/>
   <path d="m330.38-160.6 1.8687-6.9024-117.39-118.08-1.852 6.8404z" fill="#a18313" stroke="#6c4a00" stroke-width=".50453"/>
   <path d="m325.58-156.84c-8.6251-8.8899-10.824-19.575-4.9122-23.867s17.697-0.56347 26.322 8.3264c4.3126 4.4449 7.0186 9.3388 7.9076 13.658s-0.0393 8.0632-2.9955 10.209c-5.9122 4.2914-17.697 0.56349-26.322-8.3264z" fill="#ba2216"/>
   <path d="m325.58-156.84c-8.6251-8.8899-10.824-19.575-4.9122-23.867s-8.5019 6.5581 2.3221 12.58c6.5557 3.6474 8.6994 12.886 12.299 15.433 13.673 9.6771 19.57 2.034 16.614 4.1797-5.9122 4.2914-17.697 0.56349-26.322-8.3264z" fill="#880f06"/>
  </g>
  <g transform="matrix(.97834 -.207 .207 .97834 -721.22 -2150.8)">
   <path d="m339.16-169.33-6.912 1.8328-117.39-118.08 6.8499-1.8163z" fill="#dec152" stroke="#6c4a00" stroke-width=".50453"/>
   <path d="m330.38-160.6 1.8687-6.9024-117.39-118.08-1.852 6.8404z" fill="#a18313" stroke="#6c4a00" stroke-width=".50453"/>
   <path d="m325.58-156.84c-8.6251-8.8899-10.824-19.575-4.9122-23.867s17.697-0.56347 26.322 8.3264c4.3126 4.4449 7.0186 9.3388 7.9076 13.658s-0.0393 8.0632-2.9955 10.209c-5.9122 4.2914-17.697 0.56349-26.322-8.3264z" fill="#ba2216"/>
   <path d="m325.58-156.84c-8.6251-8.8899-10.824-19.575-4.9122-23.867s-8.5019 6.5581 2.3221 12.58c6.5557 3.6474 8.6994 12.886 12.299 15.433 13.673 9.6771 19.57 2.034 16.614 4.1797-5.9122 4.2914-17.697 0.56349-26.322-8.3264z" fill="#880f06"/>
  </g>
  <path d="m-619.28-2570.9 268.7 123.04-157.52 90.942-268.7-133.74z" fill="#e8b800" stroke="#95700c" stroke-width="3.0195"/>
  <path d="m-776.8-2463.9 268.7 123.04v21.398l-268.7-128.39z" fill="#653e10"/>
  <path d="m-777.08-2492 53.87-24.913 269.2 126.58-53.408 32.1z" fill="#dcb005"/>
  <path d="m-489.56-2346.2 150.36-86.808v51.064l-150.36 86.808z" fill="#b6b6b6" stroke="#95700c" stroke-width="1.4411"/>
  <g transform="matrix(.83389 0 0 .83389 346.72 -1318.1)">
   <path transform="matrix(1.0898 0 0 1.1859 -324.73 594.9)" d="m-657.86-1684.1c0 26.825-39.975 48.571-89.286 48.571s-89.286-21.746-89.286-48.571 39.975-48.571 89.286-48.571 89.286 21.746 89.286 48.571z" fill="#ad6d00"/>
   <path transform="matrix(1 0 0 1.0882 -391.81 430.36)" d="m-657.86-1684.1c0 26.825-39.975 48.571-89.286 48.571s-89.286-21.746-89.286-48.571 39.975-48.571 89.286-48.571 89.286 21.746 89.286 48.571z" fill="#d08300"/>
   <path transform="matrix(.3006 .02979 -.01976 .19946 -801.87 -1116.2)" d="m-1108.1-1398.3-32.155 10.633-9.4699 32.517-20.049-27.295-33.851 1.0417 19.764-27.502-11.452-31.873 32.264 10.298 26.774-20.74 0.1762 33.867z" fill="#d46b00"/>
   <path transform="matrix(.3006 .02979 -.01976 .19946 -833.74 -1119.5)" d="m-1108.1-1398.3-32.155 10.633-9.4699 32.517-20.049-27.295-33.851 1.0417 19.764-27.502-11.452-31.873 32.264 10.298 26.774-20.74 0.1762 33.867z" fill="#d46b00"/>
   <path transform="matrix(.3006 .02979 -.01976 .19946 -859.47 -1116)" d="m-1108.1-1398.3-32.155 10.633-9.4699 32.517-20.049-27.295-33.851 1.0417 19.764-27.502-11.452-31.873 32.264 10.298 26.774-20.74 0.1762 33.867z" fill="#d46b00"/>
   <path transform="matrix(.3006 .02979 -.01976 .19946 -876.54 -1097.4)" d="m-1108.1-1398.3-32.155 10.633-9.4699 32.517-20.049-27.295-33.851 1.0417 19.764-27.502-11.452-31.873 32.264 10.298 26.774-20.74 0.1762 33.867z" fill="#d46b00"/>
   <path transform="matrix(.3006 .02979 -.01976 .19946 -870.59 -1075.5)" d="m-1108.1-1398.3-32.155 10.633-9.4699 32.517-20.049-27.295-33.851 1.0417 19.764-27.502-11.452-31.873 32.264 10.298 26.774-20.74 0.1762 33.867z" fill="#d46b00"/>
   <path transform="matrix(.3006 .02979 -.01976 .19946 -846.55 -1061.9)" d="m-1108.1-1398.3-32.155 10.633-9.4699 32.517-20.049-27.295-33.851 1.0417 19.764-27.502-11.452-31.873 32.264 10.298 26.774-20.74 0.1762 33.867z" fill="#d46b00"/>
   <path d="m-1146.9875-1361.1626c0-.7341.5547-1.7412 1.2325-2.2383 1.0772-.7898.9904-1.2624-.6892-3.7522-1.0569-1.5669-2.8952-5.4126-4.0852-8.5461-4.0543-10.6765-9.584-20.0409-13.3926-22.6803-1.7017-1.1794-4.2046-3.3346-5.5618-4.7893-2.7869-2.9873-6.265-8.7463-5.6523-9.359 .2224-.2223 3.9253.5946 8.2288,1.8155s9.3301,2.4218 11.1701,2.6686 6.3011,2.0043 9.9136,3.9055c8.7277,4.5934 10.7736,4.9516 16.3553,2.8632 2.4847-.9296 6.1219-1.6902 8.083-1.6902 6.9326,0 7.9221-1.7188 3.0882-5.3642-3.658-2.7586-4.6321-3.8881-6.7059-7.776l-1.5822-2.9663 13.1988-.026c12.1693-.024 13.5479-.1798 17.6752-2.001 2.4621-1.0865 6.6068-2.2183 9.2106-2.5152l4.7338-.5401-1.3375,2.2641c-.7356,1.2454-3.7021,4.9902-6.5921,8.3218s-5.4692,6.9116-5.7311,7.9557c-.2811,1.1195-1.7615,2.5538-3.6086,3.4962-1.7225.8787-3.5264,2.3349-4.0085,3.2357s-2.5034,3.4696-4.4916,5.7082-3.855,5.0715-4.1483,6.2951c-.896,3.7375-2.5902,6.4778-7.6146,12.3155-5.882,6.8341-9.2444,9.036-13.798,9.036-3.9147,0-6.3005,1.0719-8.4401,3.7919-1.7527,2.2283-5.4503,2.6157-5.4503.5709z" fill="#c46600"/>
  </g>
  <path transform="matrix(.72694 -.68671 .88722 .46135 170.96 -790.08)" d="m1176.5-1799.3h3.9772v17.7h-3.9772z" fill="#ad6d00"/>
  <path transform="matrix(.72694 -.68671 .88722 .46135 170.96 -790.08)" d="m1183.4-1797.2h3.9772v17.7h-3.9772z" fill="#ad6d00"/>
  <path transform="matrix(.72694 -.68671 .88722 .46135 170.96 -790.08)" d="m1190.1-1795.1h3.9772v17.7h-3.9772z" fill="#ad6d00"/>
  <path transform="matrix(.72694 -.68671 .88722 .46135 170.96 -790.08)" d="m1197.1-1793.6h3.9772v17.7h-3.9772z" fill="#ad6d00"/>
  <path transform="matrix(.72694 -.68671 .88722 .46135 170.96 -790.08)" d="m1204-1791.5h3.9772v17.7h-3.9772z" fill="#ad6d00"/>
  <path transform="matrix(.72694 -.68671 .88722 .46135 170.96 -790.08)" d="m1210.7-1789.4h3.9772v17.7h-3.9772z" fill="#ad6d00"/>
  <path transform="matrix(.72694 -.68671 .88722 .46135 170.96 -790.08)" d="m1217.4-1787.3h3.9772v17.7h-3.9772z" fill="#ad6d00"/>
  <path transform="matrix(.72694 -.68671 .88722 .46135 170.96 -790.08)" d="m1224.3-1785.2h3.9772v17.7h-3.9772z" fill="#ad6d00"/>
  <path transform="matrix(.72694 -.68671 .88722 .46135 170.96 -790.08)" d="m1231-1783.1h3.9772v17.7h-3.9772z" fill="#ad6d00"/>
  <path transform="matrix(.72694 -.68671 .88722 .46135 170.96 -790.08)" d="m1238.1-1781.3h3.9772v17.7h-3.9772z" fill="#ad6d00"/>
  <path transform="matrix(.72694 -.68671 .88722 .46135 170.96 -790.08)" d="m1245.2-1779.7h3.9772v17.7h-3.9772z" fill="#ad6d00"/>
  <path transform="matrix(.72694 -.68671 .88722 .46135 170.96 -790.08)" d="m1252.2-1777.9h3.9772v17.7h-3.9772z" fill="#ad6d00"/>
  <path transform="matrix(.72694 -.68671 .88722 .46135 170.96 -790.08)" d="m1259-1775.9h3.9772v17.7h-3.9772z" fill="#ad6d00"/>
  <path transform="matrix(.72694 -.68671 .88722 .46135 170.96 -790.08)" d="m1265.8-1773.7h3.9772v17.7h-3.9772z" fill="#ad6d00"/>
  <path transform="matrix(.72694 -.68671 .88722 .46135 170.96 -790.08)" d="m1272.5-1771.6h3.9772v17.7h-3.9772z" fill="#ad6d00"/>
  <path transform="matrix(.2122 -.20045 .25898 .13467 -319.54 -1921.4)" d="m1176.5-1799.3h3.9772v17.7h-3.9772z" fill="#ad6d00"/>
  <path transform="matrix(.2122 -.20045 .25898 .13467 -319.54 -1921.4)" d="m1183.4-1797.2h3.9772v17.7h-3.9772z" fill="#ad6d00"/>
  <path transform="matrix(.2122 -.20045 .25898 .13467 -319.54 -1921.4)" d="m1190.1-1795.1h3.9772v17.7h-3.9772z" fill="#ad6d00"/>
  <path transform="matrix(.2122 -.20045 .25898 .13467 -319.54 -1921.4)" d="m1197.1-1793.6h3.9772v17.7h-3.9772z" fill="#ad6d00"/>
  <path transform="matrix(.2122 -.20045 .25898 .13467 -319.54 -1921.4)" d="m1204-1791.5h3.9772v17.7h-3.9772z" fill="#ad6d00"/>
  <path transform="matrix(.2122 -.20045 .25898 .13467 -319.54 -1921.4)" d="m1210.7-1789.4h3.9772v17.7h-3.9772z" fill="#ad6d00"/>
  <path transform="matrix(.2122 -.20045 .25898 .13467 -319.54 -1921.4)" d="m1217.4-1787.3h3.9772v17.7h-3.9772z" fill="#ad6d00"/>
  <path transform="matrix(.2122 -.20045 .25898 .13467 -319.54 -1921.4)" d="m1224.3-1785.2h3.9772v17.7h-3.9772z" fill="#ad6d00"/>
  <path transform="matrix(.2122 -.20045 .25898 .13467 -319.54 -1921.4)" d="m1231-1783.1h3.9772v17.7h-3.9772z" fill="#ad6d00"/>
  <path transform="matrix(.2122 -.20045 .25898 .13467 -319.54 -1921.4)" d="m1238.1-1781.3h3.9772v17.7h-3.9772z" fill="#ad6d00"/>
  <path transform="matrix(.2122 -.20045 .25898 .13467 -319.54 -1921.4)" d="m1245.2-1779.7h3.9772v17.7h-3.9772z" fill="#ad6d00"/>
  <path transform="matrix(.2122 -.20045 .25898 .13467 -319.54 -1921.4)" d="m1252.2-1777.9h3.9772v17.7h-3.9772z" fill="#ad6d00"/>
  <path transform="matrix(.2122 -.20045 .25898 .13467 -319.54 -1921.4)" d="m1259-1775.9h3.9772v17.7h-3.9772z" fill="#ad6d00"/>
  <path transform="matrix(.2122 -.20045 .25898 .13467 -319.54 -1921.4)" d="m1265.8-1773.7h3.9772v17.7h-3.9772z" fill="#ad6d00"/>
  <path transform="matrix(.2122 -.20045 .25898 .13467 -319.54 -1921.4)" d="m1272.5-1771.6h3.9772v17.7h-3.9772z" fill="#ad6d00"/>
  <path transform="matrix(.36933 -.34889 .45076 .23439 -153.98 -1562.3)" d="m1176.5-1799.3h3.9772v17.7h-3.9772z" fill="#ad6d00"/>
  <path transform="matrix(.36933 -.34889 .45076 .23439 -153.98 -1562.3)" d="m1183.4-1797.2h3.9772v17.7h-3.9772z" fill="#ad6d00"/>
  <path transform="matrix(.36933 -.34889 .45076 .23439 -153.98 -1562.3)" d="m1190.1-1795.1h3.9772v17.7h-3.9772z" fill="#ad6d00"/>
  <path transform="matrix(.36933 -.34889 .45076 .23439 -153.98 -1562.3)" d="m1197.1-1793.6h3.9772v17.7h-3.9772z" fill="#ad6d00"/>
  <path transform="matrix(.36933 -.34889 .45076 .23439 -153.98 -1562.3)" d="m1204-1791.5h3.9772v17.7h-3.9772z" fill="#ad6d00"/>
  <path transform="matrix(.36933 -.34889 .45076 .23439 -153.98 -1562.3)" d="m1210.7-1789.4h3.9772v17.7h-3.9772z" fill="#ad6d00"/>
  <path transform="matrix(.36933 -.34889 .45076 .23439 -153.98 -1562.3)" d="m1217.4-1787.3h3.9772v17.7h-3.9772z" fill="#ad6d00"/>
  <path transform="matrix(.36933 -.34889 .45076 .23439 -153.98 -1562.3)" d="m1224.3-1785.2h3.9772v17.7h-3.9772z" fill="#ad6d00"/>
  <path transform="matrix(.36933 -.34889 .45076 .23439 -153.98 -1562.3)" d="m1231-1783.1h3.9772v17.7h-3.9772z" fill="#ad6d00"/>
  <path transform="matrix(.36933 -.34889 .45076 .23439 -153.98 -1562.3)" d="m1238.1-1781.3h3.9772v17.7h-3.9772z" fill="#ad6d00"/>
  <path transform="matrix(.36933 -.34889 .45076 .23439 -153.98 -1562.3)" d="m1245.2-1779.7h3.9772v17.7h-3.9772z" fill="#ad6d00"/>
  <path transform="matrix(.36933 -.34889 .45076 .23439 -153.98 -1562.3)" d="m1252.2-1777.9h3.9772v17.7h-3.9772z" fill="#ad6d00"/>
  <path transform="matrix(.36933 -.34889 .45076 .23439 -153.98 -1562.3)" d="m1259-1775.9h3.9772v17.7h-3.9772z" fill="#ad6d00"/>
  <path transform="matrix(.36933 -.34889 .45076 .23439 -153.98 -1562.3)" d="m1265.8-1773.7h3.9772v17.7h-3.9772z" fill="#ad6d00"/>
  <path transform="matrix(.36933 -.34889 .45076 .23439 -153.98 -1562.3)" d="m1272.5-1771.6h3.9772v17.7h-3.9772z" fill="#ad6d00"/>
  <path d="m-430.6-2481.3-140.69 85.989" fill="none" stroke="#bd7a17" stroke-width="6.47"/>
  <path d="m-488.82-2345.8 43.676-25.284-0.18909 48.64-43.457 24.682z" fill="#acacac"/>
  <path d="m-620.14-2572.3-158.01 79.24v52.995l270.56 139.46 3.0887-2.451 15.168 8.7151 150.29-85.989-0.30489-53.736-8.2922-5.2471 0.25254-9.1959z" fill="none" stroke="#903302" stroke-width="7.0866"/>
  <path d="m-400.95-2378.9-26.394 16.469c2.5166 4.4685 6.1669 8.7017 11.497 8.1329 7.959-0.8489 16.158-8.1399 16.114-16.898-0.01-1.9465-0.62657-6.0429-1.2182-7.7035z" fill="#7c7c7c"/>
  <path d="m-400.49-2379.7-25.888 16.216c2.5166 4.4685 7.177 7.1864 12.507 6.6176 7.959-0.8489 14.39-8.6449 14.347-17.403-0.01-1.9465-0.37403-3.7701-0.96566-5.4307z" fill="#a8a8a8" stroke="#9e7506" stroke-width=".79248"/>
  <g transform="translate(-1043.3 -2157.9)">
   <path d="m295.2-208.44 4.9735-5.138 161.5 40.525-4.9288 5.0919z" fill="#a88d32" stroke="#6c4a00" stroke-width=".50453"/>
   <path d="m298.21-220.46 1.9629 6.8762 161.5 40.525-1.9453-6.8144z" fill="#dec152" stroke="#6c4a00" stroke-width=".50453"/>
   <path d="m300.38-226.16c11.976 3.1608 19.376 11.177 16.528 17.904s-14.865 9.6188-26.842 6.4579c-5.9882-1.5804-10.832-4.3746-13.823-7.6147s-4.129-6.9259-2.705-10.29c2.848-6.7275 14.865-9.6188 26.842-6.458z" fill="#ba2216"/>
   <path d="m303.33-204.58c11.976 3.1608 16.429-10.398 13.581-3.6704s-14.865 9.6188-26.842 6.4579c-5.9882-1.5804-10.832-4.3746-13.823-7.6147s-5.0941-10.299-2.0075-8.3458c7.6851 4.8639 16.891 17.001 28.709 13.293z" fill="#8f150b"/>
  </g>
  <g transform="matrix(.97834 -.207 .207 .97834 -896.98 -2077.7)">
   <path d="m339.16-169.33-6.912 1.8328-117.39-118.08 6.8499-1.8163z" fill="#dec152" stroke="#6c4a00" stroke-width=".50453"/>
   <path d="m330.38-160.6 1.8687-6.9024-117.39-118.08-1.852 6.8404z" fill="#a18313" stroke="#6c4a00" stroke-width=".50453"/>
   <path d="m325.58-156.84c-8.6251-8.8899-10.824-19.575-4.9122-23.867s17.697-0.56347 26.322 8.3264c4.3126 4.4449 7.0186 9.3388 7.9076 13.658s-0.0393 8.0632-2.9955 10.209c-5.9122 4.2914-17.697 0.56349-26.322-8.3264z" fill="#ba2216"/>
   <path d="m325.58-156.84c-8.6251-8.8899-10.824-19.575-4.9122-23.867s-8.5019 6.5581 2.3221 12.58c6.5557 3.6474 8.6994 12.886 12.299 15.433 13.673 9.6771 19.57 2.034 16.614 4.1797-5.9122 4.2914-17.697 0.56349-26.322-8.3264z" fill="#880f06"/>
  </g>
  <g transform="translate(-894.03 -2025.9)">
   <path d="m244.41-451.03 4.6144 6.2162-48.925 164.78-4.6144-6.2162z" fill="#a88d32" stroke="#6c4a00" stroke-width=".57511"/>
   <path transform="rotate(17.226)" d="m100.26-494.46 5.8075 2.2641 0.0861 6.8994s-1.5036-7.0062-1.858-4.6763c-0.1545 1.0157-0.75805 6.8206-1.7584 4.4958-0.75685-1.7589-2.2489 2.8067-2.2489 2.8067z" fill="#390f03"/>
   <path d="m256.29-447.51-7.259 2.6909-48.925 164.78 7.259-2.6909z" fill="#dec152" stroke="#6c4a00" stroke-width=".57511"/>
   <path d="m253.47-438.77-6.2006 0.63731-1.9187 6.6278s3.3135-6.3536 3.0352-4.0133c-0.1213 1.0202-1.084 6.7764 0.49883 4.8016 1.1976-1.4941 1.421 3.3039 1.421 3.3039z" fill="#390f03"/>
   <path d="m241.56-465.75c4.3023-11.615 12.995-18.207 19.416-14.723s8.1388 15.725 3.8365 27.34c-2.1511 5.8076-5.3999 10.359-8.9136 13.024s-7.2922 3.4411-10.503 1.699c-6.4211-3.4841-8.1388-15.725-3.8365-27.34z" fill="#500"/>
   <path d="m273.32-497.32c0.50936 22.506 0.94512 27.433-10.268 46.833-3.4591 5.9848-14.159-9.5347-18.479-8.3543s-3.0027 17.682-7.0322 8.523c-10.934-24.852 9.7772-44.799 12.245-50.258 4.3607-9.645-1.3497-49.455-0.0791-68.133 1.859 15.348 5.8183 23.397 10.21 32.116 5.7808 11.477 13.053 23.809 13.403 39.274z" fill="#f9cb24" opacity=".4933"/>
   <path d="m273.32-497.32c0.50936 22.506 0.94514 27.433-10.268 46.833-0.86477 1.4962 7.2683-12.741 7.9462-24.305 0.18228-3.1098 2.6619-20.078-6.042-38.441-7.8738-16.612-12.168-35.864-13.973-41.766-2.6865-8.784 4.5553 45.697 1.6397 54.063-1.2472 3.579-10.395 16.302-11.155 17.124-11.857 12.832 0.10209 42.652-3.9274 33.494-10.934-24.852 9.7772-44.799 12.245-50.258 4.3607-9.645-1.3497-49.455-0.0791-68.133 1.859 15.348 5.8183 23.397 10.21 32.116 5.7808 11.477 13.053 23.809 13.403 39.274z" fill="#ffe800" opacity=".6592"/>
   <path d="m271.96-495.42c0.45221 19.98 0.8391 24.355-9.1154 41.578-0.76772 1.3283 6.4527-11.311 7.0545-21.578 0.16184-2.7608-0.45647-16.059-8.2045-32.352-8.7452-18.389-7.9619-33.615-9.5645-38.855-2.385-7.7984 6.0465 40.839 3.4581 48.267-1.1073 3.1774-9.2851 14.425-9.9598 15.155-10.527 11.392-7.5499 37.346-8.8526 28.559-4.5044-30.385 12.1-38.818 14.291-43.665 3.8714-8.5627-1.1983-43.906-0.0702-60.488 1.6504 13.626 5.1654 20.772 9.0646 28.513 5.1321 10.189 11.588 21.138 11.899 34.867z" fill="#ff6300" opacity=".6592"/>
   <path d="m269.64-486.71c-0.35348 16.269-0.19669 19.841-8.9157 33.491-0.67243 1.0528 5.6571-8.9676 6.5173-17.297 0.23131-2.2398 0.20846-13.08-5.5057-26.612-6.4496-15.274-5.2628-27.631-6.3772-31.951-1.6585-6.4294 3.444 33.438 1.0704 39.386-1.0154 2.5446-8.0734 11.398-8.6486 11.968-8.9741 8.8863-7.4895 30.106-8.2318 22.911-2.567-24.878 11.244-31.139 13.201-35.002 3.4582-6.8253 0.61036-35.757 2.1265-49.205 0.85055 11.143 3.4518 17.082 6.3439 23.52 3.8068 8.4731 8.6628 17.612 8.4199 28.791z" fill="#ff6300" opacity=".6592"/>
  </g>
 </g>
</svg>
